# xmcd
#
# Track frame offsets:
#	150
#	27226
#	42533
#	59659
#	74053
#	89500
#	107456
#	125213
#	141134
#	158856
#	175742
#	194484
#
# Disc length: 2838 seconds
#
# Revision: 2
# Processed by: cddbd v1.5.2PL0 Copyright (c) Steve Scherf et al.
# Submitted via: EZCDAudioConverter 7.1.5.1
#
DISCID=b80b140c
DTITLE=吉馬大對唱 - 吉馬大對唱 10 CD 典藏版
DYEAR=20110616
DGENRE=
TTITLE0=故鄉
TTITLE1=落大雨門彼一日
TTITLE2=愛情恰恰
TTITLE3=男性的本領
TTITLE4=海底針
TTITLE5=慈母心
TTITLE6=天下一定是咱的
TTITLE7=奮鬥的歌手
TTITLE8=阿爸原諒我
TTITLE9=假情假愛
TTITLE10=愛情的騙子我問你
TTITLE11=戀歌
EXTD=
EXTT0=
EXTT1=
EXTT2=
EXTT3=
EXTT4=
EXTT5=
EXTT6=
EXTT7=
EXTT8=
EXTT9=
EXTT10=
EXTT11=
PLAYORDER=
